<?xml version="1.0" encoding="UTF-8"?>
<!DOCTYPE svg PUBLIC "-//W3C//DTD SVG 1.1//EN" "http://www.w3.org/Graphics/SVG/1.1/DTD/svg11.dtd">
<!-- Creator: CorelDRAW 2021 (64 Bit) -->
<svg xmlns="http://www.w3.org/2000/svg" xml:space="preserve" width="45.3625mm" height="50.7083mm" version="1.1" style="shape-rendering:geometricPrecision; text-rendering:geometricPrecision; image-rendering:optimizeQuality; fill-rule:evenodd; clip-rule:evenodd"
viewBox="0 0 2241.76 2505.95"
 xmlns:xlink="http://www.w3.org/1999/xlink"
 xmlns:xodm="http://www.corel.com/coreldraw/odm/2003">
 <defs>
  <style type="text/css">
   <![CDATA[
    .fil0 {fill:white}
   ]]>
  </style>
 </defs>
 <g id="Camada_x0020_1">
  <metadata id="CorelCorpID_0Corel-Layer"/>
  <g id="_1853529238320">
   <path class="fil0" d="M877.07 2177.99l487.62 0c-0.12,0.22 -0.37,0.28 -0.43,0.61 -0.86,4.31 -30.31,30.78 -34.38,34.7l-36.7 34.49c-3.31,2.76 -4.39,3.35 -7.5,6.53 -3.05,3.12 -4.5,3.79 -7.55,6.47l-22.11 19.97c-3.02,2.94 -4.95,3.86 -8.1,7 -9.77,9.71 -79.47,67.3 -92.99,77.47 -5.79,4.35 -27.58,22.14 -34.22,22.49 -11.95,0.62 -82.84,-61.62 -95.59,-72.98 -1.82,-1.63 -1.98,-1.49 -3.64,-2.83l-118.24 -102.91c-5.12,-5.12 -8.46,-9.58 -13.5,-14.55 -2.99,-2.96 -3.76,-4.54 -6.47,-7.57 -2.26,-2.53 -5.31,-5.36 -6.19,-8.9zm1364.69 -780.84l0 4.16c-0.18,6.01 -1.05,9.28 -1.12,15l-2.11 32.41c-0.6,5.48 -1.41,9.52 -2.31,14.95 -6.42,38.63 -19.14,75.42 -34.37,105.88 -30.33,60.65 -58.99,94.76 -106.51,140.54 -2.21,2.13 -2.62,2.15 -4.76,3.86 -1.91,1.53 -2.62,2.54 -4.42,4.22 -2.95,2.77 -6.45,5.1 -9.6,7.66 -40.39,32.9 -85.33,57.35 -133.94,76.44 -59.15,23.23 -118.13,24.05 -186.32,24.05l-18.96 42.53c-2.33,5.61 -3.97,8.73 -6.57,13.93 -9.32,18.64 -18.82,35.37 -29.29,52.71 -25.98,43.05 -53.99,81.74 -83.58,121.4 -14.69,19.69 -30.5,37.54 -45.62,56.86 -2.27,2.91 -2.77,3.23 -5.03,5.76l-42.61 49.08c-1.98,1.96 -3.59,3.32 -5.36,5.43 -10.9,13.01 -22.59,24.66 -34.57,36.63 -13.75,13.75 -49.19,49.52 -62.68,60.3l-50.04 42.74c-2.25,2 -2.78,2.75 -5.14,4.57l-116.24 99.52c-2.4,2.23 -2.47,2.37 -5.21,4.5 -2.56,1.99 -3.38,3.23 -5.69,5.1l-39.13 32.06c-7.74,6.17 -14.77,12.17 -22.82,18.18 -17.56,13.11 -34.82,28.36 -60.11,28.36 -27.85,0 -79.04,-47.17 -100.79,-64.26 -8.05,-6.32 -15.03,-11.67 -22.93,-18.06l-33.53 -27.96c-2.47,-2.2 -3.4,-2.41 -5.93,-4.86 -2.26,-2.2 -2.72,-2.77 -5.11,-4.6 -11.57,-8.84 -21.36,-19.94 -32.1,-29.39l-32.31 -29.19c-7.12,-5.95 -13.95,-13.85 -21.13,-19.86 -7.8,-6.52 -14.19,-12.42 -22,-18.99 -41,-34.44 -78.82,-71.2 -115.52,-109.92 -3.73,-3.94 -5.63,-6.84 -9.69,-10.84 -20.21,-19.91 -59.12,-67.6 -75.65,-88.34 -49,-61.51 -95.43,-126.78 -130.68,-197.28 -9.07,-18.14 -16.38,-38.13 -25.89,-56.1 -33.45,0 -76.46,-0.28 -108.5,-4.77 -34.08,-4.78 -60.98,-12.52 -88.61,-23.59 -49.11,-19.66 -84.6,-40.23 -124.21,-72.13 -15.04,-12.11 -29.22,-27.92 -43.02,-41.13 -3.6,-3.44 -3.95,-2.57 -7.24,-6.79 -2.37,-3.04 -4.17,-4.59 -6.81,-7.21 -14.27,-14.09 -23.88,-32.68 -35,-49.15 -3.88,-5.75 -7.11,-11.52 -10.63,-17.42 -3.47,-5.8 -6.56,-11.57 -10.27,-17.78 -3.56,-5.95 -6.28,-12.26 -9.44,-18.6 -23.88,-47.76 -40.64,-98.43 -40.64,-155.71 0,-60.29 2.33,-125.45 19.01,-175.18 6.81,-20.32 14.92,-39.74 24.86,-58.2l30.36 -51.64c21.98,-34.26 17.6,-24.17 35.97,-47.1 3.28,-4.1 5.93,-7.06 9.3,-11.2l19.93 -21.07c36.79,-32.5 69.44,-49.47 110.91,-73.57 8.48,-4.93 19.09,-9.61 28,-14.07 9.17,-4.59 17.87,-8.9 27.33,-13.67 37.14,-18.72 76.04,-34.47 114.45,-50.6 35.51,-14.92 81.45,-33.77 118.09,-46.97 39.25,-14.14 79.47,-32.09 118.12,-45.86 21.5,-7.65 40.09,-14.68 62.17,-19.82 0,-33.52 -8.86,-68.68 -8.62,-114.36 0.03,-6.87 -0.91,-9.91 -1.14,-15.14 -0.23,-5.68 1.17,-7.49 1.17,-13.95 -0.06,-66.55 35.01,-151.84 73.48,-202.7 4.53,-5.99 8.23,-11.16 11.29,-18.91 13.57,-34.4 -3.65,-79.22 -15.46,-108.85 -0.85,-2.15 -0.69,-1.7 -1.47,-3.85l-8.19 -18.84c-11.77,-23.39 -16.12,-32.2 -33.31,-55.15l-15.29 -18.16c-13.14,-13.6 -24.46,-26.43 -39.28,-38.39 -55.96,-45.16 -97.99,-60.92 -173.34,-69.39 -12.99,-1.46 -26.37,-2.57 -38.62,-5.62 -11.69,-2.91 -22.32,-7.39 -28.95,-15.28 -7.53,-8.94 -12.46,-20.23 -12.46,-35.01 0,-23.04 13.29,-40.43 32.83,-47 8.29,-2.79 14.13,-2.03 22.17,-1.55 9.21,0.54 18.16,-0.28 26.2,0.78l23.64 2.26c123.68,15.33 224.9,79.78 294.32,178.19 6.83,9.68 15.25,20.95 20.85,32.01 15.07,29.73 42.79,81.22 42.79,113.64 14.85,-1.24 35.38,-17.74 48.9,-24.46 115.67,-57.46 231.2,-56.72 348.09,-4.66 4.15,1.85 7.79,4.04 12.24,6.1 8.95,4.15 43.82,22.47 50.35,23.01 0,-47.97 53.67,-141.97 89.27,-179.35 11.97,-12.57 22.52,-27.16 36.5,-37.94 3.15,-2.43 4.42,-4.28 7.19,-6.84 10.21,-9.46 21.82,-18.06 33.02,-26.32 23.48,-17.32 48.39,-31.5 75.84,-42.83 14.08,-5.81 27.81,-11.42 43.45,-15.88 37.17,-10.61 76.5,-17.92 116.07,-17.7 5.62,0.03 10.22,-1.14 13.85,-0.94 22.91,1.23 43.77,17.53 46.43,42.04 2.32,21.3 -4.38,35.36 -14.14,44.96 -10.54,10.35 -25.46,13.96 -43.21,16.13 -42.79,5.23 -59.96,3.74 -101.8,17.95 -27.48,9.34 -54.42,24.25 -77.29,41.38 -3.38,2.53 -5.36,3.72 -8.66,6.44 -28.47,23.38 -43.82,37.53 -66.26,67.52l-17.36 26.87c-2.07,3.4 -3.32,6.33 -5.38,9.73 -18.33,30.16 -30.4,76.93 -34.93,112.86 -3.18,25.25 -3.07,29.26 10.16,45.26 4.71,5.71 8.67,11.47 12.7,17.51 2.05,3.07 3.79,5.7 6.05,9.05 28.85,42.91 59.76,123.72 59.76,191.61 0,24.69 -1.41,49.03 -3.33,72.19 -1.67,20.1 -6.38,40.01 -6.38,61.59 20.87,1.73 59.86,18.54 80.14,26.66 42.33,16.94 83.73,31.84 126.53,48.24l47.46 18.44c33.94,12.51 93.61,36.62 126.69,53.37 78.17,39.59 102.91,48.42 177.69,103.88l18.91 15.61c16.41,16.32 26.93,23.28 43.82,44.64l21.51 30.28c37.44,59.88 60.73,102.12 71.23,175.82 1.44,10.14 2.16,21.36 3.26,31.26 1.96,17.56 1.18,34.18 1.2,51.66 0.01,6.13 0.93,8.52 1.12,14.2zm-1589.08 383.84c7.96,-6.92 18.06,-11.39 27.32,-16.91 29.21,-17.43 75.7,-53.13 99.22,-80.94 29.86,-35.31 32.66,-45.43 54.07,-81.85 21.35,-36.33 22.54,-29.59 59.96,-29.59l452.02 0c12.62,0 34.51,-2.98 42.28,3.03 7.17,5.54 14.37,18.17 19.15,26.16 11.27,18.83 22.54,37.85 35.51,55.11l19.83 24.4c2.18,2.46 2.41,3.41 4.84,5.95l17.28 17.24c18.85,18.85 54.04,46.79 75.57,60.37 19.19,12.11 56.41,24.43 78.27,35.01 4.25,2.06 11.49,5.84 15.81,6.84 -15.4,29.11 -20.1,43.72 -38.1,74.1 -7.15,12.06 -15.29,21.79 -22.38,33.72 -26.12,43.93 -40.17,57.21 -72.22,98.23 -7.86,10.07 -23.11,30.11 -31.54,38.58 -4.47,4.49 -9.41,7.6 -13.35,14.7 -2.15,3.9 -1.76,9.3 -5.81,9.3l-700.15 0c-3.88,0 -4.17,-4.99 -8.92,-11.58 -2.94,-4.07 -5.64,-7.9 -9.15,-11.35 -3.94,-3.87 -5.72,-6.86 -9.72,-10.77l-27.57 -33.92c-6.35,-7.84 -12.3,-14.58 -18.31,-22.68 -15.99,-21.56 -62.81,-80.2 -64.42,-99.56 31.54,0 61.4,1.09 93.86,1.08 15.73,-0 29.64,1.08 46.39,1.08l174.78 -1.07c6.57,0.04 8.84,-0.82 14.01,-1.1 4.88,-0.27 10.23,0.27 15.11,0.01 16.45,-0.89 51.4,-2.24 63.22,-11.22 21.5,-16.31 27.4,-53.47 9.83,-72.64 -4.93,-5.38 -13.92,-10.12 -20.64,-12.81 -30.8,-12.33 -76.67,-9.02 -110.71,-8.02 -6.01,0.17 -9.75,1.14 -17.22,1.12l-248.13 -0zm331.19 -512.43l274.02 0c1.16,4.99 2.82,8.27 4.45,12.81 12.91,35.9 27.59,77.59 43.03,112.32 1.74,3.91 3.74,7.31 5.76,11.51 2.12,4.41 3.17,7.51 5.38,11.88 10.97,21.57 17.31,47.44 19.06,51.07l-429.37 0c0.29,-12.81 58.58,-140.53 69.18,-172.47l8.49 -27.11zm67.97 -186.63c6.14,1.43 11.98,0.67 18.79,1.7l58.88 3.69c10.16,0 20.09,-1.45 29.58,-2.78 8.61,-1.21 21.1,-2.61 29.75,-2.61 0.31,3.73 1.77,7.11 2.8,11.22l22.01 62.13c1.55,3.2 2.68,6.62 4.31,9.71l-194.18 0c1,-4.31 1.76,-5.59 3.59,-9.35 1.7,-3.48 2.68,-6.36 4.11,-9.91 4.77,-11.87 20.1,-53.08 20.34,-63.8zm-583.63 640.81c-74.7,0 -96.11,-0.17 -163.22,-28.82 -33.13,-14.14 -61.6,-36.16 -89.69,-58.11 -25.49,-19.92 -59.99,-68.41 -73.26,-95.03 -23,-46.16 -39.56,-96.87 -39.56,-151.39 0,-34.35 -0.29,-55.01 7.77,-89.33 4.66,-19.82 9.21,-36.74 16.43,-54.77 6.83,-17.09 14.71,-32.95 23.32,-47.89 1.87,-3.25 4.4,-7.13 6.64,-10.63l27.57 -36.08c16.66,-17.92 14.14,-15.38 31.8,-30.77 16.63,-14.49 44.75,-32.93 64.16,-43.73l46.36 -24.84c43.57,-21.78 80.14,-36.16 125.81,-54.35 67.14,-26.73 136.31,-56.66 203.58,-83.39 8.51,-3.39 17.4,-6.3 25.91,-9.69 8.54,-3.4 16.84,-6.58 25.72,-9.88 10.71,-3.99 43.05,-16.83 55.18,-17.1l4.26 6.51c8.34,14.81 20.06,35.12 31.09,47.67l21.55 23.76c31.76,31.76 47.22,48.04 86.91,71.67 10.79,6.43 35.78,20.58 47.13,20.84 0,18.4 -29.9,88.09 -36.54,108.02 -20.51,61.56 -44.79,124.03 -69.8,183.72 -8.97,21.42 -24.47,58.6 -33.19,75.77 -4.28,8.42 -7.45,17.01 -11.48,25.19 -2.04,4.14 -3.9,7.79 -6.13,12.21l-17.61 36.33c-18.17,34.9 -53.48,98.84 -75.8,123.77l-21.92 23.39c-43.57,34.04 -49.83,38.03 -94.68,59.59 -32.85,15.79 -79.59,27.33 -118.3,27.33zm818.81 -675.33c8.72,-0.19 25.35,-7.8 32.73,-11.51 10.59,-5.34 19.09,-10.47 28.55,-16.75 16.67,-11.07 54.11,-42.13 66.78,-57.28 28.31,-33.87 28.44,-30.46 54.47,-70.67 3.18,-4.91 5.35,-9.66 8.42,-14.24 23.39,0.46 187.84,67.15 211.45,76.59 51.99,20.82 101.82,42.66 153.04,63.8 22.87,9.44 39.76,17.57 61.29,28.25 4.78,2.37 7.29,4.18 11.85,6.49l34.69 18.17c23.05,14.02 31.22,17.06 55.85,34.77 3.89,2.8 6.68,5.03 10.48,7.86 3.43,2.56 7.17,5.31 10.21,8.14 10.73,9.99 22.2,19.75 31.4,31.17 25.78,32.02 41.45,53.75 57.8,96.48 25.83,67.53 29.76,135.7 14.19,207.13 -5.32,24.39 -12.78,43.22 -21.27,63.95 -3.26,7.98 -9.55,20.61 -13.92,28.15 -15.6,26.89 -28.54,45.56 -49.87,67.72l-15.63 15.65c-26.85,24.84 -55.46,45.3 -89.07,60.88 -120.65,55.95 -262.13,35.21 -366.46,-44.94 -13.29,-10.21 -17.66,-15.08 -28.85,-26.17 -10.46,-10.36 -30.71,-38.26 -39.73,-53.05l-27.07 -46.29c-8.89,-16.51 -16.79,-32.67 -25.17,-49.27 -20.37,-40.35 -48.77,-109.51 -66.73,-154.43 -23.41,-58.59 -51.57,-127.92 -72.02,-186.9 -3.29,-9.48 -6.47,-17.21 -9.72,-26.96 -5.79,-17.41 -11.08,-30.73 -15.89,-48.84 -0.66,-2.49 -0.99,-6.16 -1.78,-7.93zm-162.9 -63.65c-44.93,0 -90.13,-9.18 -128.4,-28.03 -29.69,-14.63 -48.36,-25.88 -73.67,-47.15l-33.92 -32.79c-14.67,-14.34 -37.11,-49.85 -45.22,-66.07 -31.19,-62.4 -36.53,-122.69 -25.8,-192.29 3.71,-24.04 8.95,-41.92 16.64,-61.03 7.72,-19.17 22.69,-45.7 34.67,-62.43l46.73 -51.45c59.71,-49.93 114.55,-77.08 201.07,-79.21l11.11 0.14c7.13,-0 13.13,0.02 18.69,0.75 37.39,4.93 57.6,8.25 93.56,24.02 9.11,3.99 17.69,7.69 26.07,12.77 20.32,12.31 27.18,15.54 46.52,31.15l31.23 28.1c16.42,16.33 29.7,35.37 42.43,54.66 2.73,4.14 4.83,7.81 7.25,12.16 1.38,2.47 1.94,3.9 3.32,6.46l1.54 2.88c40.46,80.92 42.2,179.97 3.79,262.15 -13.77,29.46 -23.36,46.2 -43.65,71.78l-17.94 20.9c-2.36,2.68 -6.47,6.84 -9.21,9.13 -2.38,1.99 -2.97,2.03 -5.37,4.34l-15.55 13.58c-3.88,3.14 -7.03,5.56 -10.96,8.46 -7.29,5.38 -15.39,10.55 -23.43,15.4 -43.97,26.56 -99.96,41.6 -151.51,41.6z"/>
   <path class="fil0" d="M1747.67 1597.59l0 8.63c0,12.81 12.44,25.72 21.21,30.57 39.79,22.02 114.54,0.36 147.44,-16.18 7.65,-3.85 13.98,-7.1 21.02,-11.35 22.14,-13.37 36.39,-25.75 54.41,-43.77 38.92,-38.92 78.48,-104.18 78.48,-181.51 0,-56.38 -68.04,-78.95 -96.68,-31.95 -3.87,6.36 -5.34,18.43 -6.73,26.71 -10.84,64.51 -27.85,115.66 -88.97,146.22 -48.91,24.45 -73.73,8.56 -104.74,30.1 -6.85,4.76 -11.76,10.1 -16.39,17.05 -4.16,6.25 -9.04,15.73 -9.04,25.48z"/>
   <path class="fil0" d="M283.73 1365.65c-14.65,0.05 -91.19,1.78 -98.18,-1.08 0,73.04 10.72,118.66 51.01,172.31l15.6 18.92c37.59,37.16 63.11,56.94 113.23,76.65 34.51,13.57 109.24,30.98 132.29,-10.76 14.6,-26.44 6.75,-55.67 -19.13,-70.04 -16.68,-9.27 -80.8,-6.52 -129.03,-43.58 -34.02,-26.14 -56.45,-69.55 -60.5,-112.11 -0.49,-5.15 -2.45,-25.82 -5.29,-30.31z"/>
   <path class="fil0" d="M1284.86 1778.83c-32.59,0 -78.99,4.8 -88.88,36.26 -3.47,11.04 -3.12,25.01 0.85,35.59 7.79,20.75 26.14,29.53 50.71,33.44 26.91,4.27 52.18,1.36 80.49,1.53 8.05,0.04 11.35,-1.15 19.39,-1.11 19.66,0.11 34.32,1.3 52.03,-10.54 16.62,-11.11 26.06,-34.02 17.73,-59.2 -3.44,-10.4 -9.6,-17.7 -17.79,-24.28 -7.29,-5.87 -19.41,-9.61 -32.52,-9.56 -28.54,0.12 -53.6,-2.13 -82.02,-2.13z"/>
   <path class="fil0" d="M185.55 1364.56c6.99,2.87 83.53,1.13 98.18,1.08 -0.2,-8.88 -9.66,-23.99 -14.92,-28.23 -24.04,-19.42 -56.64,-11.8 -75.46,11.21 -5.31,6.48 -5.16,7.33 -7.79,15.94z"/>
  </g>
 </g>
</svg>
